<?xml version="1.0" encoding="utf-8"?>
<!-- Generator: Adobe Illustrator 21.1.0, SVG Export Plug-In . SVG Version: 6.00 Build 0)  -->
<svg version="1.1" id="Layer_1" xmlns="http://www.w3.org/2000/svg" xmlns:xlink="http://www.w3.org/1999/xlink" x="0px" y="0px"
	 viewBox="0 0 40 40" style="enable-background:new 0 0 40 40;" xml:space="preserve">
<style type="text/css">
	.st0{fill:#ea7324;}
</style>
<g>
	<path class="st0" d="M7.4,3.1L7.4,3.1C6.2,3.1,5,3.5,4.1,4.4c-0.9,0.9-1.4,2-1.4,3.2c0,1.3,0.5,2.4,1.4,3.3c0.9,0.8,2,1.3,3.2,1.3
		c0,0,0.1,0,0.1,0c1.2,0,2.3-0.5,3.1-1.3c0.9-0.9,1.4-2,1.4-3.3c0-1.2-0.5-2.4-1.3-3.3C9.8,3.5,8.6,3.1,7.4,3.1"/>
	<path class="st0" d="M9.7,13.4H5c-0.9,0-1.7,0.8-1.7,1.7v20.1c0,0.9,0.8,1.7,1.7,1.7h4.6c0.9,0,1.7-0.8,1.7-1.7V15.1
		C11.4,14.2,10.6,13.4,9.7,13.4"/>
	<path class="st0" d="M29.3,12.8h-1.2c-2.2,0-4.4,0.9-5.8,2.5v-0.8c0-0.6-0.6-1.1-1.1-1.1h-5.7c-0.5,0-1.1,0.5-1.1,1.1v21.4
		c0,0.6,0.6,1,1.1,1l6.3,0c0.5,0,1.1-0.4,1.1-1V23.5c0-1.9,1.4-3.3,3.2-3.4c0.9,0,1.7,0.3,2.4,1c0.5,0.5,0.8,1.3,0.8,2.3v12.3
		c0,0.6,0.6,1.1,1.1,1.1h5.7c0.6,0,1.1-0.6,1.1-1.1V21C37.2,16.4,33.7,12.8,29.3,12.8"/>
</g>
</svg>
