<?xml version="1.0" encoding="utf-8"?>
<!-- Generator: Adobe Illustrator 21.1.0, SVG Export Plug-In . SVG Version: 6.00 Build 0)  -->
<svg version="1.1" id="Layer_1" xmlns="http://www.w3.org/2000/svg" xmlns:xlink="http://www.w3.org/1999/xlink" x="0px" y="0px"
	 viewBox="0 0 40 40" style="enable-background:new 0 0 40 40;" xml:space="preserve">
<style type="text/css">
	.st0{fill:#ea7324;}
</style>
<path class="st0" d="M38.7,13.1c-1.2,0.7-16,9.8-16.7,10.3c-0.7,0.5-1.3,0.5-2,0.5c-0.7,0-1.2-0.1-2-0.5
	c-0.7-0.5-15.5-9.5-16.7-10.3c-0.8-0.5-0.8,0.1-0.8,0.6v18.7c0,1.1,1.2,2.4,2.1,2.4h34.7c0.9,0,2.2-1.4,2.2-2.4V13.6
	C39.5,13.2,39.5,12.6,38.7,13.1 M1.8,8C2.8,8.7,17.5,17.9,18,18.3c0.5,0.3,1.3,0.5,2,0.5c0.7,0,1.4-0.2,2-0.5
	C22.5,17.9,37.2,8.7,38.2,8c1.1-0.7,2.1-2.8,0.1-2.8H1.7C-0.3,5.2,0.7,7.3,1.8,8"/>
</svg>
