<?xml version="1.0" encoding="utf-8"?>
<!-- Generator: Adobe Illustrator 21.1.0, SVG Export Plug-In . SVG Version: 6.00 Build 0)  -->
<svg version="1.1" id="Layer_1" xmlns="http://www.w3.org/2000/svg" xmlns:xlink="http://www.w3.org/1999/xlink" x="0px" y="0px"
	 viewBox="0 0 40 40" style="enable-background:new 0 0 40 40;" xml:space="preserve">
<style type="text/css">
	.st0{fill:#ea7324;}
</style>
<path class="st0" d="M38.4,29.5C37,26.8,32.2,24,32,23.8c-0.6-0.4-1.3-0.5-1.9-0.5c-0.9,0-1.6,0.4-2.1,1.2c-0.7,0.8-1.6,1.8-1.8,2
	c-1.6,1.1-2.9,1-4.4-0.4l-8-8c-1.4-1.4-1.6-2.7-0.4-4.4c0.2-0.2,1.1-1.1,2-1.8c0.5-0.3,0.9-0.8,1.1-1.4c0.2-0.8,0.1-1.7-0.5-2.6
	c-0.1-0.2-3-5-5.6-6.4c-0.5-0.3-1-0.4-1.6-0.4c-0.9,0-1.8,0.4-2.4,1L4.7,3.8c-2.8,2.8-3.8,5.9-3,9.4c0.7,2.9,2.6,5.9,5.7,9.1
	l10.2,10.2c4,4,7.8,6,11.3,6c2.6,0,5-1.1,7.2-3.3l1.8-1.8C38.9,32.4,39.1,30.8,38.4,29.5"/>
</svg>
